<svg width="157" height="50" viewBox="0 0 157 50" fill="none" xmlns="http://www.w3.org/2000/svg">
<g clip-path="url(#clip0_573_755)">
<path d="M126.837 23.5502C127.094 23.5502 127.388 23.459 127.737 23.2766C128.086 23.0942 128.252 22.93 128.252 22.7658C128.252 22.7111 128.197 22.6382 128.086 22.5652C127.976 22.474 127.829 22.4375 127.627 22.4375C127.315 22.4375 127.057 22.5469 126.855 22.7658C126.653 22.9847 126.543 23.1854 126.543 23.3496C126.543 23.4043 126.561 23.459 126.635 23.5137C126.653 23.532 126.727 23.5502 126.837 23.5502Z" fill="#878787"/>
<path d="M155.682 4.79748C155.315 4.59683 154.892 4.48738 154.451 4.48738C153.569 4.48738 152.522 4.79748 151.309 5.41769C150.097 6.03791 148.81 6.87702 147.432 7.91678C146.054 8.95655 144.64 10.1787 143.188 11.5651C141.736 12.9514 140.303 14.3925 138.925 15.9066C137.529 17.4206 136.224 18.9529 134.993 20.5217C133.762 22.0722 132.678 23.568 131.741 24.9726C131.557 25.2645 131.374 25.5381 131.208 25.8117C130.933 26.0853 130.639 26.359 130.326 26.6326C129.72 27.1616 129.077 27.6176 128.397 28.0372C127.699 28.4567 127.001 28.7851 126.266 29.0222C125.549 29.2776 124.833 29.3871 124.134 29.3871C123.583 29.3871 123.308 29.1681 123.308 28.7304C123.308 28.402 123.418 28.0554 123.657 27.6723C123.896 27.3075 124.134 26.9427 124.41 26.5779C124.667 26.213 124.925 25.9029 125.145 25.6475C125.366 25.3922 125.476 25.1915 125.476 25.0821C125.476 24.9361 125.421 24.8449 125.329 24.7902C125.237 24.7355 125.108 24.699 124.98 24.699C124.759 24.699 124.502 24.8267 124.208 25.1003C123.987 25.3009 123.785 25.5381 123.583 25.7935C123.418 25.9576 123.234 26.1401 123.032 26.3225C122.499 26.8515 121.911 27.3622 121.287 27.873C120.662 28.3838 120.037 28.8216 119.394 29.1681C118.751 29.533 118.218 29.6972 117.777 29.6972C117.575 29.6972 117.465 29.5695 117.446 29.2958C117.41 29.0405 117.391 28.7304 117.355 28.402C117.318 28.0737 117.263 27.7818 117.171 27.5082C117.079 27.2528 116.858 27.1069 116.528 27.1069C116.215 27.1069 115.811 27.271 115.297 27.5811C114.782 27.8912 114.305 28.2196 113.864 28.5479C113.753 28.6574 113.661 28.7304 113.606 28.7486C113.827 28.4202 114.066 28.0372 114.286 27.6359C114.525 27.2163 114.746 26.815 114.929 26.4137C115.131 26.0124 115.278 25.6475 115.407 25.3009C115.536 24.9544 115.591 24.6807 115.591 24.4436C115.591 24.0788 115.389 23.9146 115.003 23.9146C114.69 23.9146 114.286 24.0788 113.753 24.3889C113.22 24.699 112.633 25.1185 112.008 25.6293C111.365 26.1401 110.722 26.7238 110.042 27.3805C109.38 28.0372 108.756 28.7121 108.168 29.3688C108.535 28.6756 108.921 28.0189 109.344 27.3805C109.766 26.742 110.207 26.1218 110.685 25.5198C110.832 25.3557 110.887 25.2097 110.887 25.0638C110.887 24.8632 110.74 24.7719 110.464 24.7719C110.152 24.7719 109.821 24.9726 109.436 25.3922C109.068 25.8117 108.701 26.3042 108.333 26.888C108.278 26.9792 108.223 27.0886 108.149 27.1798C106.735 28.3108 105.301 29.1134 103.85 29.5877C102.141 30.1532 100.377 30.4268 98.5399 30.4268C97.4926 30.4268 96.4269 30.3539 95.3429 30.2079C94.2772 30.062 93.1931 29.8613 92.1091 29.6059C93.5055 27.7271 94.8468 25.8482 96.1513 23.9328C97.4558 22.0357 98.742 20.1568 100.028 18.3144L101.406 17.7854C104.456 16.545 107.286 15.1951 109.858 13.7358C112.449 12.2765 114.58 10.7807 116.271 9.26665C117.943 7.77085 119.118 6.43922 119.835 5.23528C120.552 4.03134 120.901 3.02806 120.901 2.24367C120.901 1.53225 120.662 0.985005 120.166 0.638416C119.688 0.273586 119.082 0.0911705 118.347 0.0546875C116.785 0.0546875 115.223 0.547208 113.625 1.55049C112.026 2.53553 110.409 3.86717 108.774 5.54538C107.139 7.2236 105.467 9.15721 103.795 11.4009C102.123 13.6264 100.396 15.9978 98.6501 18.4786C97.4191 18.8982 96.0411 19.336 94.4977 19.8285C92.9543 20.3028 91.3374 20.7406 89.6287 21.1236C87.9199 21.5067 86.1744 21.8351 84.4105 22.0904C82.6466 22.3458 80.9563 22.4918 79.3394 22.4918C78.2002 22.4918 77.1162 22.4188 76.1056 22.2729C75.0951 22.1269 74.1764 21.8715 73.3312 21.5067C72.5044 21.1419 71.7694 20.6858 71.1631 20.1386C70.5567 19.5914 70.079 18.8982 69.7483 18.0773C69.7299 18.0226 69.6564 17.9861 69.5829 17.9861C69.4911 17.9861 69.4543 18.0226 69.4543 18.1138C69.4543 18.4969 69.6381 18.9164 69.9872 19.3542C70.3546 19.792 70.6486 20.1204 70.9058 20.3393C71.8429 21.2148 73.0556 21.8533 74.5255 22.2181C75.9954 22.583 77.6122 22.7836 79.3577 22.7836C80.9379 22.7836 82.5732 22.6559 84.2819 22.4188C85.9723 22.1634 87.6627 21.8533 89.3163 21.4885C90.9883 21.1236 92.5868 20.7041 94.1302 20.248C95.6736 19.792 97.0516 19.3542 98.2827 18.9529C97.0884 20.6858 95.8757 22.437 94.6631 24.1882C93.432 25.9394 92.1826 27.6906 90.9148 29.4235C89.5552 29.0952 88.1771 28.7486 86.7807 28.3655C85.3843 28.0007 83.9879 27.6359 82.5731 27.3075C81.1584 26.9792 79.7252 26.7055 78.2737 26.4866C76.8222 26.2677 75.3707 26.1583 73.9008 26.1583C71.0712 26.1583 68.5173 26.6508 66.2389 27.6541C63.9606 28.6391 62.013 29.9161 60.3961 31.4483C58.7792 32.9806 57.5482 34.6771 56.6846 36.5195C55.821 38.3619 55.3984 40.1678 55.3984 41.9007C55.3984 42.9952 55.5822 44.0532 55.968 45.02C56.3355 46.0051 56.9235 46.8442 57.6952 47.5556C58.4668 48.267 59.4774 48.8508 60.6901 49.2703C61.9211 49.6899 63.3543 49.9088 65.0263 49.9088C67.617 49.9088 70.0974 49.3615 72.4676 48.267C74.8378 47.1725 77.1529 45.7132 79.3945 43.9073C81.6361 42.0831 83.7858 39.9671 85.862 37.5592C87.9383 35.1514 89.941 32.6158 91.8886 29.9708C93.0278 30.2262 94.1486 30.4268 95.2694 30.591C96.3718 30.7552 97.4742 30.8464 98.5583 30.8464C100.194 30.8464 101.81 30.6275 103.372 30.1897C104.824 29.7884 106.275 29.0587 107.69 28.0189C107.561 28.2561 107.433 28.5115 107.304 28.7486C106.992 29.3688 106.771 29.8796 106.588 30.2991C106.569 30.3539 106.551 30.4451 106.551 30.5545C106.551 30.7004 106.606 30.8099 106.698 30.9011C106.79 30.9923 106.918 31.047 107.102 31.047C107.378 31.047 107.543 30.9193 107.598 30.6822C108.039 30.0802 108.572 29.4418 109.197 28.7851C109.821 28.1284 110.446 27.5082 111.071 26.9244C111.695 26.3407 112.302 25.8482 112.871 25.4104C113.441 24.9908 113.919 24.6807 114.305 24.4801C114.323 24.4801 114.36 24.4801 114.36 24.4618C114.378 24.4436 114.396 24.4436 114.415 24.4436C114.415 24.5348 114.305 24.8267 114.084 25.3374C113.864 25.8482 113.625 26.3772 113.349 26.9427C113.092 27.5082 112.724 28.2378 112.283 29.1134C112.283 29.3871 112.375 29.5695 112.541 29.6242C112.706 29.6972 112.853 29.7336 113 29.7336C113.092 29.6424 113.257 29.4965 113.533 29.2594C113.808 29.0222 114.102 28.7851 114.433 28.5479C114.746 28.3108 115.058 28.1101 115.352 27.9277C115.646 27.7453 115.866 27.6541 115.995 27.6541C116.197 27.6541 116.289 27.7818 116.307 28.0189C116.326 28.2743 116.344 28.5297 116.399 28.8216C116.436 29.1134 116.546 29.387 116.711 29.6242C116.877 29.8796 117.208 29.989 117.704 29.989C118.2 29.989 118.788 29.8066 119.431 29.46C120.092 29.0952 120.735 28.6756 121.36 28.1649C121.875 27.7453 122.371 27.3258 122.83 26.888C122.775 26.9974 122.72 27.0886 122.683 27.1981C122.518 27.6176 122.426 27.9642 122.426 28.2378C122.426 28.7121 122.573 29.0769 122.867 29.3323C123.161 29.5877 123.602 29.7336 124.226 29.7336C124.943 29.7336 125.678 29.6059 126.431 29.3323C127.185 29.0769 127.901 28.7304 128.599 28.2926C129.261 27.8912 129.867 27.4352 130.437 26.9427C130.069 27.5994 129.738 28.2196 129.463 28.8216C128.93 29.989 128.654 30.9376 128.654 31.649C128.654 32.0686 128.765 32.4151 129.004 32.707C129.242 32.9989 129.702 33.1448 130.4 33.1448C131.061 33.1448 131.796 32.9989 132.605 32.7252C133.413 32.4516 134.24 32.0868 135.085 31.6308C135.93 31.1747 136.794 30.664 137.658 30.0985C138.521 29.533 139.33 28.9675 140.083 28.3838C140.689 27.9277 141.24 27.4717 141.773 27.0339C141.736 27.271 141.718 27.4899 141.718 27.7271C141.773 28.2743 141.957 28.7486 142.251 29.1134C142.563 29.4783 143.041 29.6789 143.702 29.6789C144.456 29.6789 145.191 29.5512 145.926 29.2776C146.661 29.0222 147.377 28.6756 148.057 28.2561C148.737 27.8365 149.38 27.3805 149.968 26.8515C150.574 26.3225 151.107 25.8117 151.566 25.2827C151.566 25.1185 151.475 25.0273 151.309 25.0273C150.887 25.5198 150.391 26.0124 149.821 26.5231C149.251 27.0156 148.645 27.4717 148.002 27.873C147.359 28.2743 146.716 28.6027 146.036 28.858C145.374 29.1134 144.695 29.2594 144.033 29.2594C143.555 29.2594 143.206 29.1317 142.986 28.8945C142.765 28.6391 142.637 28.329 142.618 27.946C142.618 27.4534 142.729 26.9427 142.949 26.4137C143.206 26.359 143.464 26.2677 143.739 26.1401C144.015 26.0124 144.272 25.8664 144.511 25.7023C144.75 25.5381 144.952 25.3557 145.117 25.1915C145.283 25.0091 145.374 24.8267 145.374 24.626C145.319 24.2429 144.989 24.0423 144.382 24.0423C143.941 24.0423 143.555 24.1517 143.206 24.3889C142.876 24.626 142.6 24.9179 142.361 25.2827C142.141 25.6293 141.975 26.0124 141.847 26.4319C141.681 26.5779 141.553 26.7238 141.443 26.815C140.469 27.6359 139.366 28.4932 138.117 29.3506C136.867 30.2262 135.618 30.9741 134.369 31.6125C133.652 31.9773 132.935 32.2692 132.256 32.4881C131.576 32.707 130.951 32.8165 130.4 32.8165C129.849 32.8165 129.463 32.7252 129.261 32.5428C129.059 32.3604 128.948 32.1233 128.948 31.8132C128.948 31.2659 129.279 30.4086 129.922 29.2594C130.584 28.1101 131.429 26.7968 132.495 25.3009C132.935 25.0456 133.615 24.6443 134.534 24.0788C135.453 23.5133 136.5 22.8383 137.694 22.054C138.889 21.2696 140.175 20.394 141.553 19.4454C142.931 18.4969 144.29 17.5118 145.65 16.4903C147.01 15.4688 148.333 14.4472 149.582 13.4075C150.85 12.3677 151.971 11.3827 152.944 10.4524C153.918 9.52204 154.69 8.64644 155.278 7.86206C155.866 7.07767 156.16 6.40274 156.16 5.85549C156.252 5.36297 156.068 4.99814 155.682 4.79748ZM105.118 11.182C106.679 9.066 108.204 7.20536 109.693 5.61835C111.199 4.03134 112.669 2.77267 114.102 1.82411C115.554 0.893797 116.987 0.419518 118.402 0.419518C119.063 0.419518 119.596 0.583692 119.982 0.912039C120.368 1.24039 120.57 1.73291 120.57 2.40784C120.533 3.21047 120.184 4.17727 119.486 5.30825C118.788 6.43922 117.649 7.71613 116.068 9.12072C114.396 10.6165 112.283 12.0758 109.693 13.5352C107.102 14.9762 104.309 16.3261 101.278 17.5665C101.131 17.6213 100.984 17.676 100.837 17.7307C100.69 17.7854 100.524 17.8584 100.359 17.9314C101.976 15.56 103.556 13.298 105.118 11.182ZM84.778 37.2491C82.7569 39.657 80.6807 41.773 78.5493 43.5972C76.418 45.4396 74.2315 46.8807 71.9899 47.9569C69.7483 49.0332 67.4332 49.5622 65.063 49.5622C63.4461 49.5622 62.0681 49.3615 60.8922 48.9602C59.7163 48.5589 58.7608 48.0116 57.9891 47.3002C57.2174 46.5888 56.6662 45.7679 56.2987 44.8376C55.9313 43.9073 55.7659 42.8858 55.7659 41.8095C55.7659 40.1313 56.1885 38.3801 57.0337 36.5742C57.8789 34.7683 59.0916 33.1083 60.6717 31.6125C62.2518 30.1167 64.1627 28.8763 66.4043 27.8912C68.6459 26.9062 71.1447 26.4137 73.9191 26.4137C75.389 26.4137 76.8406 26.5231 78.2737 26.742C79.7069 26.9609 81.1216 27.2346 82.518 27.5447C83.9144 27.8548 85.3108 28.2013 86.6705 28.5844C88.0301 28.9493 89.3714 29.3141 90.7127 29.6424C88.8018 32.3239 86.7991 34.8413 84.778 37.2491ZM145.08 24.4254C145.172 24.4254 145.209 24.4801 145.209 24.5895C145.209 24.8449 144.989 25.1003 144.529 25.3922C144.07 25.684 143.647 25.9029 143.262 26.0306C143.482 25.5928 143.758 25.2097 144.07 24.8996C144.382 24.5895 144.713 24.4254 145.08 24.4254ZM155.204 7.62492C154.727 8.3181 154.084 9.066 153.275 9.85038C152.448 10.653 151.511 11.4921 150.446 12.4042C149.38 13.298 148.259 14.2101 147.083 15.1222C145.742 16.1437 144.382 17.147 143.004 18.1138C141.608 19.0988 140.285 20.0109 139.017 20.8683C137.749 21.7256 136.592 22.4735 135.563 23.1485C134.516 23.8051 133.689 24.3159 133.082 24.6807C134.075 23.2944 135.214 21.8533 136.482 20.3393C137.749 18.8252 139.054 17.3294 140.395 15.8701C141.736 14.4108 143.096 13.0062 144.474 11.6745C145.852 10.3429 147.157 9.15721 148.406 8.13568C149.656 7.11416 150.813 6.31153 151.86 5.70956C152.908 5.10759 153.79 4.81572 154.488 4.81572C154.855 4.81572 155.168 4.90693 155.462 5.07111C155.756 5.23528 155.903 5.5089 155.903 5.89197C155.921 6.34801 155.682 6.93174 155.204 7.62492Z" fill="#878787"/>
<path d="M74.9116 44.4916C74.6911 44.1815 74.5809 43.689 74.5809 43.0323V32.6711H76.6387C79.4499 32.6711 81.5629 33.3278 82.9593 34.6229C83.6575 35.2796 84.1903 35.991 84.5394 36.7572C84.9069 36.3194 85.2927 35.8633 85.6602 35.4073C85.3111 34.8236 84.8701 34.3128 84.3373 33.9115C83.6575 33.3825 82.8674 32.9994 81.9671 32.7623C81.0484 32.5252 79.8174 32.3975 78.2556 32.3975H72.082V32.5252C72.4863 32.5252 72.7435 32.5981 72.8537 32.744C72.9823 32.89 73.0375 33.3278 73.0375 34.0574V43.7802C73.0375 44.4733 72.9823 44.9476 72.8905 45.203C72.7802 45.4584 72.5781 45.6043 72.2474 45.6043H72.082V45.732H74.9116C75.2239 45.5314 75.5363 45.3125 75.8486 45.0936C75.4077 44.9659 75.0953 44.7652 74.9116 44.4916Z" fill="black"/>
<path d="M85.0373 39.256C85.0373 40.7882 84.5228 42.1928 83.5123 43.4697C82.5017 44.7284 80.7746 45.3669 78.3125 45.3851C78.1471 45.5128 77.9818 45.6222 77.8164 45.7499H78.3676C80.0029 45.7499 81.2155 45.6222 82.0056 45.3669C82.7957 45.1115 83.5306 44.6554 84.2288 43.9623C84.927 43.2873 85.4966 42.4665 85.9008 41.5361C86.3051 40.5876 86.5255 39.639 86.5255 38.6722C86.5255 38.3256 86.4888 37.9973 86.452 37.6689C86.3969 37.7419 86.3418 37.8149 86.2683 37.8696C85.8641 38.3621 85.4599 38.8182 85.0373 39.256Z" fill="black"/>
<path d="M87.8477 32.5616C87.866 32.5616 87.9028 32.5616 87.9211 32.5616C87.9579 32.5069 87.9946 32.4522 88.0498 32.3975H87.8477V32.5616Z" fill="black"/>
<path d="M88.8003 44.674C88.8003 45.0936 88.7268 45.3489 88.5615 45.4401C88.3961 45.5314 88.1573 45.6043 87.8633 45.6226V45.7503H97.0501V43.9261H96.9215C96.848 44.4369 96.7378 44.7835 96.5908 44.9294C96.4438 45.0753 96.2601 45.1848 96.058 45.2395C95.8558 45.2942 95.3598 45.3125 94.6064 45.3125H92.2362C91.7218 45.3125 91.3359 45.276 91.097 45.203C90.8398 45.13 90.6561 44.9659 90.5458 44.6922C90.4356 44.4186 90.3805 43.9626 90.3805 43.3424V39.2198H94.6064C94.9188 39.2198 95.1209 39.2563 95.2311 39.311C95.3414 39.3657 95.4149 39.4934 95.4516 39.6576H95.5802V38.3989H95.4516C95.4516 38.5449 95.3965 38.6543 95.2863 38.7273C95.176 38.8002 94.9188 38.8367 94.5146 38.8367H90.3989V32.8535H94.8453C95.3414 32.8535 95.6354 32.9082 95.764 33.0359C95.8926 33.1636 96.0396 33.5649 96.2233 34.2399H96.3519V32.3975H90.7479C90.1232 33.2183 89.4802 34.021 88.8371 34.8236V44.674H88.8003Z" fill="black"/>
<path d="M103.628 38.6541C103.114 38.417 102.177 38.0704 100.799 37.6143C99.9904 37.3042 99.476 36.9576 99.2187 36.5928C98.9615 36.228 98.8329 35.8084 98.8329 35.3159C98.8329 34.5862 99.1085 33.9478 99.6413 33.4188C100.174 32.8898 100.909 32.6344 101.828 32.6344C102.379 32.6344 102.875 32.7256 103.298 32.9263C103.739 33.1087 104.125 33.3823 104.455 33.7289C104.786 34.0755 104.97 34.2579 104.97 34.2579L105.08 34.2397L104.437 32.5797C104.418 32.5797 104.382 32.5797 104.363 32.5614C104.308 32.5249 104.014 32.4702 103.481 32.3608C102.967 32.2513 102.471 32.2148 102.012 32.2148C100.854 32.2148 99.9169 32.5614 99.2004 33.2728C98.4838 33.966 98.1347 34.8416 98.1347 35.8631C98.1347 36.4286 98.2817 36.9759 98.5573 37.5231C98.8329 38.0704 99.182 38.4717 99.6046 38.7453C100.027 39.0189 100.744 39.329 101.773 39.6939C102.802 40.0405 103.518 40.3506 103.886 40.5877C104.253 40.8248 104.547 41.1167 104.749 41.4451C104.951 41.7734 105.062 42.1565 105.062 42.6125C105.062 43.3604 104.768 44.0171 104.18 44.5461C103.592 45.0751 102.71 45.3487 101.571 45.3487C100.303 45.3487 99.3841 45.0934 98.7778 44.5826C98.1898 44.0718 97.8774 43.178 97.8591 41.8828H97.7305V45.7683H101.313C101.497 45.7683 101.883 45.7318 102.489 45.6771C103.077 45.6041 103.518 45.5129 103.794 45.3852C104.069 45.2575 104.345 45.0569 104.602 44.8197C104.859 44.5643 105.098 44.2907 105.282 43.9806C105.466 43.6705 105.613 43.3604 105.686 43.0321C105.778 42.7037 105.815 42.3571 105.815 41.9923C105.815 41.1167 105.576 40.4053 105.098 39.858C104.621 39.2743 104.125 38.873 103.628 38.6541Z" fill="black"/>
<path d="M106.844 32.543C107.266 32.5248 107.542 32.5978 107.671 32.7984C107.799 32.9991 107.854 33.4186 107.854 34.0388V44.1811C107.854 44.7831 107.799 45.1844 107.689 45.3486C107.579 45.5128 107.303 45.604 106.844 45.604V45.7317H110.427V45.604C110.096 45.604 109.857 45.5675 109.728 45.4763C109.6 45.4033 109.508 45.2939 109.471 45.1662C109.434 45.0385 109.398 44.7101 109.398 44.1446V33.9294C109.398 33.4186 109.416 33.072 109.453 32.9444C109.49 32.7984 109.618 32.7072 109.839 32.6342C110.059 32.5613 110.243 32.543 110.427 32.5613V32.4336H106.844V32.543Z" fill="black"/>
<path d="M121.49 41.2441C121.802 41.2258 122.022 41.2806 122.188 41.4265C122.353 41.5542 122.427 41.8278 122.427 42.2109V44.2357C122.427 44.7282 122.316 45.0383 122.114 45.166C121.912 45.2937 121.398 45.3667 120.589 45.3849L119.873 45.4031C119.45 45.4214 118.881 45.3667 118.182 45.2572C117.466 45.1478 116.823 44.9471 116.253 44.6552C115.684 44.3634 115.132 43.9256 114.636 43.3054C114.14 42.7034 113.791 42.0832 113.607 41.463C113.424 40.8428 113.332 40.1314 113.332 39.3287C113.332 37.4134 113.883 35.7899 114.985 34.4947C116.088 33.1996 117.521 32.5429 119.248 32.5429C120.24 32.5429 121.159 32.7435 121.967 33.1266C122.776 33.5097 123.419 34.0022 123.897 34.6042H124.025L123.474 33.0719C122.004 32.4882 120.608 32.1963 119.285 32.1963C117.815 32.1963 116.492 32.5246 115.334 33.1813C114.177 33.838 113.277 34.6954 112.652 35.7534C112.027 36.8114 111.715 37.8694 111.715 38.9274C111.715 39.8942 111.972 40.861 112.468 41.7913C112.964 42.7216 113.626 43.506 114.434 44.1262C115.243 44.7465 116.051 45.1842 116.823 45.4031C117.613 45.622 118.513 45.7315 119.56 45.7315H124.981V45.6038H124.797C124.503 45.6038 124.301 45.5126 124.172 45.3302C124.062 45.1478 124.007 44.8377 124.007 44.4181V42.3203C124.007 41.9008 124.08 41.6089 124.209 41.4447C124.338 41.2988 124.595 41.2258 124.981 41.2258V41.0982H121.508V41.2441H121.49Z" fill="black"/>
<path d="M137.032 32.5434C137.326 32.5434 137.546 32.5981 137.73 32.7076C137.914 32.817 138.006 33.1271 138.006 33.6379V43.0505L127.918 32.3975H125.383V32.5252C126.191 32.4887 126.706 32.7258 126.926 33.2183C127.147 33.7109 127.257 34.3675 127.257 35.1519V44.1815C127.257 44.8017 127.202 45.1848 127.092 45.3489C126.981 45.5131 126.687 45.5861 126.228 45.5861V45.7138H128.819V45.5861C128.451 45.5314 128.231 45.4766 128.139 45.4219C128.047 45.3672 127.973 45.2577 127.937 45.1118C127.882 44.9659 127.863 44.7287 127.863 44.4186V34.55L138.594 45.8962V33.7473C138.594 33.2548 138.667 32.9265 138.814 32.7805C138.961 32.6346 139.237 32.5434 139.641 32.5252V32.3975H137.032V32.5434Z" fill="black"/>
<path d="M73.5502 21.0697C73.789 21.1792 74.0463 21.2704 74.3219 21.3616H76.6002C78.2355 21.3616 79.4481 21.2339 80.2382 20.9785C81.0283 20.7231 81.7632 20.2671 82.4614 19.5739C83.1596 18.899 83.7292 18.0781 84.1334 17.1478C84.5377 16.1992 84.7581 15.2507 84.7581 14.2839C84.7581 13.2806 84.556 12.3685 84.1702 11.5476C83.766 10.7268 83.2331 10.0518 82.5717 9.52283C81.8918 8.99383 81.1018 8.61076 80.2015 8.37362C79.2828 8.13648 78.0517 8.00879 76.49 8.00879H70.3164V8.13648C70.7206 8.13648 70.9779 8.20945 71.0881 8.35538C71.1983 8.50131 71.2718 8.93911 71.2718 9.66877V19.3915C71.2718 19.428 71.2718 19.4645 71.2718 19.5009C71.3637 19.5922 71.4556 19.7016 71.5474 19.7928C72.0987 20.3036 72.7785 20.7414 73.5502 21.0697ZM72.7969 8.28241H74.8547C77.6659 8.28241 79.7789 8.93911 81.1753 10.2343C82.5717 11.5476 83.2699 13.0799 83.2699 14.8676C83.2699 16.3816 82.7554 17.7862 81.7448 19.0631C80.7343 20.3401 78.952 20.9967 76.4348 20.9967C75.5345 20.9967 74.7996 20.9238 74.2668 20.7779C73.7339 20.6319 73.3481 20.413 73.1276 20.0847C72.9071 19.7746 72.7969 19.282 72.7969 18.6254V8.28241Z" fill="black"/>
<path d="M70.4466 21.2156H70.2812V21.3433H71.3653C71.2183 21.2339 71.0897 21.1427 70.9611 21.0332C70.8325 21.1609 70.6671 21.2156 70.4466 21.2156Z" fill="black"/>
<path d="M88.6196 20.7954C88.5829 20.6677 88.5461 20.3394 88.5461 19.7739V9.52217C88.5461 9.01141 88.5645 8.66482 88.6013 8.53713C88.638 8.40944 88.7666 8.29999 88.9871 8.22702C89.2076 8.15406 89.3913 8.13582 89.5751 8.15406V8.02637H85.9922V8.15406C86.4148 8.13582 86.6904 8.20878 86.819 8.40944C86.9476 8.6101 87.0027 9.02965 87.0027 9.64986V19.7921C87.0027 20.3941 86.9476 20.7954 86.8374 20.9596C86.7271 21.1238 86.4515 21.215 85.9922 21.215V21.3427H86.0473C86.9292 21.1967 87.7928 21.0326 88.6564 20.8502C88.6564 20.8319 88.638 20.8137 88.6196 20.7954Z" fill="black"/>
<path d="M93.7808 18.9167C93.2847 18.3147 92.9356 17.6945 92.7519 17.0743C92.5681 16.4541 92.4763 15.7427 92.4763 14.9401C92.4763 13.0247 93.0275 11.4012 94.1299 10.106C95.2323 8.8109 96.6655 8.15421 98.3926 8.15421C99.3848 8.15421 100.303 8.35486 101.112 8.73794C101.92 9.12101 102.563 9.61353 103.041 10.2155H103.17L102.619 8.68321C101.149 8.09948 99.7523 7.80762 98.4293 7.80762C96.9594 7.80762 95.6365 8.13596 94.479 8.79266C93.3215 9.44935 92.4211 10.3067 91.7964 11.3647C91.1717 12.4227 90.8594 13.4807 90.8594 14.5387C90.8594 15.5055 91.1166 16.4723 91.6127 17.4027C92.0904 18.2965 92.7151 19.0261 93.4684 19.6464C93.744 19.5734 94.0013 19.4822 94.2585 19.4092C94.0931 19.2633 93.9278 19.0991 93.7808 18.9167Z" fill="black"/>
<path d="M102.013 16.71H101.811C101.774 16.7464 101.755 16.8012 101.719 16.8377C101.829 16.7829 101.921 16.7464 102.013 16.71Z" fill="black"/>
<path d="M95.6205 20.3584C95.3817 20.4314 95.1244 20.5043 94.8672 20.5773C95.2347 20.7597 95.6021 20.9239 95.9512 21.0151C96.0431 21.0333 96.135 21.0698 96.2452 21.0881C96.3371 20.9421 96.429 20.8144 96.5392 20.6685C96.2085 20.5955 95.9145 20.4861 95.6205 20.3584Z" fill="black"/>
<path d="M101.589 18.3149V19.8289C101.589 20.3215 101.478 20.6316 101.276 20.7593C101.074 20.887 100.56 20.9599 99.7513 20.9782L99.0347 20.9964C98.9796 20.9964 98.9061 20.9964 98.8326 20.9964C98.7591 21.1058 98.6672 21.2335 98.5938 21.343C98.6305 21.343 98.6672 21.343 98.6856 21.343H104.106V21.2153H103.922C103.628 21.2153 103.426 21.1241 103.297 20.9417C103.187 20.7593 103.132 20.4492 103.132 20.0296V17.9318C103.132 17.8224 103.132 17.7312 103.15 17.6582C102.636 17.8771 102.122 18.096 101.589 18.3149Z" fill="black"/>
<path d="M105.062 8.00848V8.13617C105.338 8.11792 105.559 8.15441 105.706 8.22737C105.779 8.15441 105.834 8.0632 105.908 7.99023H105.062V8.00848Z" fill="black"/>
<path d="M106.073 19.7926C106.073 20.3945 106.018 20.7959 105.908 20.96C105.797 21.1242 105.522 21.2154 105.062 21.2154V21.3431H108.645V21.2154C108.315 21.2154 108.076 21.1789 107.947 21.0877C107.819 21.0148 107.727 20.9053 107.69 20.7776C107.653 20.6499 107.616 20.3216 107.616 19.7561V15.5605C107.102 15.8159 106.588 16.0713 106.073 16.3267V19.7926Z" fill="black"/>
<path d="M108.647 8.00879H108.242C108.187 8.08176 108.114 8.15472 108.059 8.22769C108.279 8.15472 108.463 8.13648 108.647 8.15472V8.00879Z" fill="black"/>
<path d="M107.618 14.0827V9.52235C107.618 9.15752 107.636 8.90214 107.654 8.71973C107.122 9.35818 106.607 10.0331 106.074 10.7445V14.8671C106.589 14.5935 107.122 14.3381 107.618 14.0827Z" fill="black"/>
<path d="M119.228 8.42801C119.448 8.42801 119.613 8.44626 119.705 8.48274C119.797 8.51922 119.852 8.61043 119.852 8.75636C119.852 8.92054 119.834 9.04823 119.816 9.13943H119.944L120.587 7.53418H120.459C120.385 7.75308 120.275 7.88077 120.11 7.93549C119.963 7.97198 119.705 8.00846 119.356 8.00846H118.364C118.235 8.15439 118.088 8.30032 117.941 8.44626H119.228V8.42801Z" fill="black"/>
<path d="M109.748 7.93549C109.638 7.89901 109.528 7.75308 109.418 7.53418H109.289L109.932 9.13943H110.061C110.006 8.97526 109.987 8.84757 109.987 8.7746C109.987 8.61043 110.042 8.51922 110.134 8.48274C110.245 8.44626 110.465 8.42801 110.796 8.42801H114.158V10.0333C114.709 9.61371 115.242 9.19416 115.701 8.75636V8.42801H116.051C116.216 8.28208 116.363 8.13615 116.51 7.99022H110.428C110.079 8.00846 109.859 7.97198 109.748 7.93549Z" fill="black"/>
<path d="M114.177 20.0482C114.177 20.5042 114.122 20.8143 114.012 20.9602C113.902 21.1062 113.608 21.1974 113.148 21.2156V21.3433H116.786V21.2156C116.492 21.2156 116.29 21.1974 116.143 21.1427C116.015 21.1062 115.905 20.9967 115.831 20.8143C115.758 20.6501 115.721 20.3218 115.721 19.8475V10.4531C115.243 10.8544 114.71 11.2558 114.177 11.6388V20.0482Z" fill="black"/>
<path d="M119.817 21.0145C119.633 21.1422 119.412 21.2151 119.137 21.2151V21.3428H121.139V21.2151C120.845 21.2151 120.698 21.1239 120.698 20.9233C120.698 20.8321 120.772 20.6132 120.901 20.2483L122.94 15.2137H126.89L128.82 19.9565C128.82 19.9565 128.838 19.993 128.838 20.0477C128.856 20.1024 128.875 20.1389 128.893 20.1571C129.04 20.4855 129.095 20.7226 129.095 20.8868C129.095 21.1057 128.948 21.2151 128.673 21.2151V21.3428H131.815V21.2151C131.318 21.2151 130.933 20.9598 130.694 20.449C130.455 19.9382 130.326 19.6464 130.326 19.5916L125.531 7.80762H125.292L120.423 20.0112C120.184 20.5584 120 20.8868 119.817 21.0145ZM124.888 10.2885L126.707 14.8306H123.069L124.888 10.2885Z" fill="black"/>
<path d="M141.406 21.3611V20.2666C140.855 20.6497 140.322 21.0145 139.789 21.3611H141.406Z" fill="black"/>
<path d="M134.884 19.8293C134.755 19.5374 134.7 19.1544 134.7 18.7166V9.34042C134.7 8.93911 134.718 8.68373 134.755 8.55603C134.792 8.44659 134.884 8.33714 135.012 8.26417C135.141 8.17296 135.38 8.13648 135.711 8.13648V8.00879H132.109V8.13648C132.605 8.15472 132.881 8.24593 132.991 8.4101C133.083 8.57428 133.138 8.86614 133.138 9.24921V20.1759C133.138 20.559 133.083 20.8326 132.955 20.9785C132.826 21.1427 132.55 21.2156 132.146 21.2156V21.3433H133.69C133.983 20.9603 134.277 20.5772 134.59 20.1941C134.682 20.0847 134.774 19.957 134.884 19.8293Z" fill="black"/>
<path d="M141.258 18.1504C141.258 18.3693 141.24 18.5699 141.203 18.7524C141.258 18.7159 141.332 18.6612 141.387 18.6247V18.1504H141.258Z" fill="black"/>
<path d="M137.384 21.3613C137.604 21.2154 137.825 21.0694 138.045 20.9235H137.273C137.053 20.9235 136.851 20.9053 136.667 20.9053C136.538 21.0694 136.41 21.2154 136.281 21.3796H137.384V21.3613Z" fill="black"/>
<path d="M33.3106 37.2123L30.7383 38.6716L27.8352 36.0084L26.0897 33.9836L23.5542 34.0383L11.7031 25.5742L20.449 42.3747L23.1132 43.4144L24.8954 42.7942L27.3759 37.6866L30.2238 39.9121L30.6097 40.2222C30.922 40.0033 33.7516 38.0879 34.1007 37.8325L34.1374 37.7048L37.5733 27.0883L33.3106 37.2123Z" fill="black"/>
<path d="M12.0352 20.2484L14.5524 14.6117L23.6473 11.1094L26.3299 11.9302L35.1309 12.7146L26.6423 16.1623L19.8624 14.0827L15.8018 14.9583L12.0352 20.2484Z" fill="black"/>
<path d="M47.8089 21.5066L44.6486 18.4238C43.583 17.4023 42.5357 16.3808 41.4516 15.3775C39.3203 13.3527 37.1522 11.3643 35.0024 9.35778C33.9368 8.35449 32.8527 7.35121 31.787 6.32968L30.1885 4.7974L28.6084 3.26511L27.8183 2.49897C27.6897 2.38952 27.5795 2.28007 27.4508 2.18886C27.3222 2.09765 27.1936 1.9882 27.0466 1.91524C26.4954 1.58689 25.8707 1.36799 25.246 1.29503C23.9598 1.14909 22.6185 1.58689 21.6815 2.49897L15.3242 8.55515L12.1088 11.5832L8.94851 14.6478C6.85391 16.7091 4.75931 18.7704 2.70145 20.8682L1.92976 21.6526C1.81951 21.7803 1.6909 21.9079 1.58066 22.0539C1.48879 22.1998 1.36017 22.3275 1.28668 22.4917C0.937576 23.0936 0.717091 23.7686 0.643596 24.4435C0.51498 25.8116 1.04782 27.2162 2.04 28.1465C4.17135 30.1713 6.3027 32.1962 8.43405 34.2392C10.547 36.2823 12.66 38.3253 14.7546 40.3866L21.0568 46.5522L21.8469 47.3184C21.9755 47.4096 22.0857 47.5373 22.196 47.6285C22.3246 47.7197 22.4348 47.8291 22.5818 47.9021C23.1146 48.2305 23.721 48.4311 24.3457 48.5041C25.5951 48.65 26.8813 48.1757 27.7816 47.3001L30.9235 44.2173C31.9708 43.1958 33.0181 42.156 34.0837 41.1345L35.6639 39.6022L37.2624 38.0882C38.3281 37.0666 39.4121 36.0816 40.4778 35.0783C42.6275 33.0718 44.7956 31.0834 46.927 29.0586L47.7354 28.3107C47.864 28.183 47.9926 28.0553 48.1029 27.9094C48.2131 27.7635 48.3234 27.6358 48.4152 27.4716C48.8011 26.8696 49.0583 26.1947 49.1502 25.4833C49.3523 24.024 48.8195 22.5464 47.8089 21.5066ZM47.9008 21.4154C48.9664 22.4552 49.5177 23.9875 49.3707 25.4833C49.2972 26.2312 49.0583 26.9608 48.6725 27.5993C48.5806 27.7635 48.452 27.9094 48.3601 28.0736C48.2499 28.2195 48.1213 28.3654 47.9926 28.5114L47.2393 29.314C45.1998 31.43 43.1971 33.5825 41.176 35.7168C40.1654 36.793 39.1549 37.851 38.1443 38.909L36.6193 40.496L35.0759 42.0648C34.047 43.1228 33.0181 44.1626 31.9708 45.2024L28.8472 48.3399C27.6529 49.5438 25.8891 50.1458 24.1987 49.9634C23.3535 49.8722 22.5267 49.5803 21.8101 49.1425C21.7182 49.0878 21.6264 49.0331 21.5529 48.9601L21.2956 48.7777C21.1303 48.65 20.9833 48.5041 20.8179 48.3581L20.0279 47.5738L13.8175 41.3169C11.7413 39.2191 9.68346 37.1396 7.6256 35.0236C5.56775 32.9258 3.52827 30.7916 1.48879 28.6755C0.386364 27.5446 -0.164847 25.9028 0.0372639 24.3705C0.129132 23.6044 0.404738 22.8565 0.827333 22.1998C0.919202 22.0356 1.04782 21.8897 1.15806 21.7255C1.2683 21.5796 1.41529 21.4337 1.54391 21.2877L2.33398 20.5216C4.44695 18.4785 6.52318 16.399 8.59941 14.3195L11.6862 11.1637L14.7362 7.98966L20.8914 1.64161C22.049 0.474158 23.7577 -0.164295 25.4114 0.0181199C26.2382 0.109328 27.0466 0.38295 27.7448 0.820747C27.8367 0.875471 27.9286 0.930196 28.002 0.98492L28.2593 1.16734C28.4246 1.29503 28.5716 1.44096 28.7186 1.58689L29.4903 2.37128L31.0337 3.94005L32.5771 5.52706C33.606 6.58507 34.6166 7.64307 35.6271 8.71932C37.6482 10.8536 39.651 13.0061 41.6905 15.1221C42.701 16.1983 43.7299 17.2381 44.7589 18.2961L47.9008 21.4154Z" fill="black"/>
<path d="M38.1804 20.6491L36.2328 16.0522L36.1409 15.8516L35.9388 15.9245L24.8044 20.1018C23.8122 19.7005 22.7649 19.3175 21.7359 18.9526C20.707 18.606 19.6965 18.2959 18.7227 17.9676L18.8513 18.1135L22.7097 22.2908L26.3661 28.8395L26.3845 28.876L26.4212 28.8942L29.5264 29.9887H29.5448H29.5631L31.9517 29.6421H32.0068L32.0436 29.6057L38.1437 20.8497L38.1988 20.7585L38.1804 20.6491ZM31.18 29.5145L30.8677 29.5692L37.3352 19.7188L37.4455 19.9741L31.18 29.5145ZM19.1636 18.3142L19.3841 18.4054L19.2922 18.5513L19.1269 18.3689L19.1636 18.3142ZM20.0272 18.7155L20.2477 18.8067L19.9537 19.2627L19.7883 19.0803L20.0272 18.7155ZM21.0929 19.208L21.3133 19.2992L20.7621 20.1201L20.5968 19.9377L21.0929 19.208ZM22.1585 19.6823C22.232 19.7188 22.3055 19.737 22.379 19.7735L21.589 20.9774L21.4236 20.795L22.1585 19.6823ZM23.2242 20.1383C23.2977 20.1748 23.3712 20.193 23.4447 20.2295L22.379 21.853L22.2137 21.6706L23.2242 20.1383ZM24.3266 20.5761C24.4001 20.6126 24.4736 20.6308 24.5471 20.6673L23.114 22.8563L22.9854 22.6374L24.3266 20.5761ZM25.87 20.3572L26.2375 20.2113L23.7571 23.969L23.6284 23.7501L25.87 20.3572ZM27.7258 19.6276L28.0932 19.4816L24.4001 25.1L24.2715 24.8811L27.7258 19.6276ZM29.5815 18.8979L29.949 18.752L25.0432 26.2127L24.9146 25.9938L29.5815 18.8979ZM31.4373 18.1865L31.8047 18.0405L25.6863 27.3437L25.5577 27.1248L31.4373 18.1865ZM33.293 17.4568L33.6605 17.3109L26.3477 28.4564L26.2191 28.2376L33.293 17.4568ZM35.1487 16.7454L35.5162 16.5995L27.3399 29.0219L27.1194 28.949L35.1487 16.7454ZM36.2328 17.2014L36.343 17.4568L28.4975 29.405L28.277 29.332L36.2328 17.2014ZM29.3978 29.7151L36.784 18.4601L36.8943 18.7155L29.6366 29.7516L29.5631 29.7698L29.3978 29.7151Z" fill="black"/>
<path d="M52.5312 6.03809V43.9622" stroke="black" stroke-miterlimit="10"/>
</g>
<defs>
<clipPath id="clip0_573_755">
<rect width="156.25" height="50" fill="white"/>
</clipPath>
</defs>
</svg>
