<?xml version="1.0" encoding="utf-8"?><svg viewBox="0 0 50 50" xmlns="http://www.w3.org/2000/svg" xmlns:xlink="http://www.w3.org/1999/xlink"><style>:root>svg{display:none}:root>svg:target{display:block}</style><svg fill="none" viewBox="0 0 20 20" id="arrow-down" xmlns="http://www.w3.org/2000/svg"><path d="M3 7l7.5 7.5L18 7" stroke="#33414E" stroke-width="2" stroke-linecap="round" stroke-linejoin="round"/></svg><svg viewBox="0 0 8 17" id="arrow-down-anim" xmlns="http://www.w3.org/2000/svg"><path d="M3.646 16.354a.5.5 0 00.708 0l3.182-3.182a.5.5 0 10-.708-.708L4 15.293l-2.828-2.829a.5.5 0 10-.708.708l3.182 3.182zM3.5 0v16h1V0h-1z"/></svg><svg fill="none" viewBox="0 0 24 24" id="arrow-down-light" xmlns="http://www.w3.org/2000/svg"><path d="M19 9l-7 7-7-7" stroke="#fff" stroke-width="2" stroke-linecap="round" stroke-linejoin="round"/></svg><svg fill="none" viewBox="0 0 17 8" id="arrow-more" xmlns="http://www.w3.org/2000/svg"><path d="M16.354 4.354a.5.5 0 000-.708L13.172.464a.5.5 0 10-.708.708L15.293 4l-2.829 2.828a.5.5 0 10.708.708l3.182-3.182zM0 4.5h16v-1H0v1z" fill="#063247"/></svg><svg fill="none" viewBox="0 0 17 8" id="arrow-more-white" xmlns="http://www.w3.org/2000/svg"><path d="M16.354 4.354a.5.5 0 000-.708L13.172.464a.5.5 0 10-.708.708L15.293 4l-2.829 2.828a.5.5 0 10.708.708l3.182-3.182zM0 4.5h16v-1H0v1z" fill="#F7F7F7"/></svg><svg fill="none" viewBox="0 0 24 24" id="arrow-right" xmlns="http://www.w3.org/2000/svg"><path d="M9 5l7 7-7 7" stroke="#fff" stroke-width="2" stroke-linecap="round" stroke-linejoin="round"/></svg><svg fill="none" viewBox="0 0 50 50" id="arrow-slider" xmlns="http://www.w3.org/2000/svg"><path d="M43.75 25L33.333 14.583M43.75 25L33.333 35.416M43.75 25H6.25" stroke="#fff" stroke-linecap="round" stroke-linejoin="round"/></svg><svg viewBox="0 0 30 30" id="facebook" xmlns="http://www.w3.org/2000/svg"><path d="M27.5 15.076C27.5 8.13 21.904 2.5 15 2.5S2.5 8.13 2.5 15.076c0 6.278 4.57 11.48 10.547 12.424v-8.788H9.873v-3.637h3.174v-2.77c0-3.152 1.865-4.893 4.721-4.893 1.367 0 2.799.245 2.799.245v3.095h-1.578c-1.552 0-2.036.97-2.036 1.965v2.359h3.467l-.554 3.635h-2.913V27.5C22.93 26.557 27.5 21.354 27.5 15.076z"/></svg><svg viewBox="0 0 30 30" id="instagram" xmlns="http://www.w3.org/2000/svg"><path fill-rule="evenodd" clip-rule="evenodd" d="M15 3.75c-3.056 0-3.438.013-4.638.067-1.198.055-2.016.246-2.732.524a5.51 5.51 0 00-1.992 1.297A5.518 5.518 0 004.34 7.63c-.276.716-.468 1.535-.522 2.733-.054 1.199-.068 1.58-.068 4.637 0 3.056.013 3.438.067 4.638.055 1.198.246 2.016.524 2.731a5.51 5.51 0 001.297 1.993A5.518 5.518 0 007.63 25.66c.716.277 1.534.468 2.732.523 1.2.054 1.582.067 4.638.067 3.055 0 3.438-.013 4.638-.067 1.198-.055 2.016-.246 2.731-.524a5.51 5.51 0 001.993-1.297 5.517 5.517 0 001.298-1.992c.277-.716.468-1.534.523-2.732.054-1.2.067-1.583.067-4.638 0-3.056-.013-3.438-.067-4.638-.055-1.198-.246-2.016-.524-2.732a5.514 5.514 0 00-1.297-1.992A5.518 5.518 0 0022.37 4.34c-.716-.276-1.535-.468-2.733-.522-1.199-.054-1.58-.068-4.637-.068zm0 2.027c3.004 0 3.36.011 4.547.066 1.096.05 1.691.232 2.088.387.525.204.9.448 1.294.841.394.394.638.769.84 1.294.155.396.338.992.389 2.088.053 1.187.065 1.543.065 4.547 0 3.004-.011 3.36-.066 4.547-.05 1.096-.232 1.691-.387 2.088-.18.489-.468.931-.841 1.294-.363.373-.805.66-1.294.84-.397.155-.992.338-2.088.389-1.187.053-1.543.065-4.547.065-3.005 0-3.36-.011-4.546-.066-1.097-.05-1.693-.232-2.09-.387a3.485 3.485 0 01-1.293-.841 3.486 3.486 0 01-.84-1.294c-.155-.397-.338-.992-.388-2.088-.054-1.187-.066-1.543-.066-4.547 0-3.004.011-3.36.066-4.546.05-1.097.232-1.693.387-2.09.204-.524.448-.9.841-1.293.363-.373.805-.66 1.294-.84.396-.155.992-.338 2.088-.388 1.187-.054 1.543-.066 4.547-.066z"/><path fill-rule="evenodd" clip-rule="evenodd" d="M15.001 18.754a3.754 3.754 0 110-7.508 3.754 3.754 0 010 7.508zm0-9.536a5.782 5.782 0 100 11.565 5.782 5.782 0 000-11.565zm7.465-.105a1.367 1.367 0 11-2.733 0 1.367 1.367 0 012.733 0z"/></svg></svg>